<svg xmlns="http://www.w3.org/2000/svg" version="1.1" xmlns:xlink="http://www.w3.org/1999/xlink" xmlns:svgjs="http://svgjs.dev/svgjs" width="128" height="128" viewBox="0 0 128 128"><g transform="matrix(0.30654761904761907,0,0,0.30654761904761907,44.38336585633574,12.33387096774193)"><svg viewBox="0 0 59 155" data-background-color="#471aa0" preserveAspectRatio="xMidYMid meet" height="336" width="128" xmlns="http://www.w3.org/2000/svg" xmlns:xlink="http://www.w3.org/1999/xlink"><g id="tight-bounds" transform="matrix(1,0,0,1,-0.0036289999999894462,0.25)"><svg viewBox="0 0 59.00725799999999 154.5" height="154.5" width="59.00725799999999"><g><svg></svg></g><g><svg viewBox="0 0 59.00725799999999 154.5" height="154.5" width="59.00725799999999"><g transform="matrix(1,0,0,1,0,59.67540586054054)"><svg viewBox="0 0 59.00725799999999 35.14918827891891" height="35.14918827891891" width="59.00725799999999"><g><svg viewBox="0 0 59.00725799999999 35.14918827891891" height="35.14918827891891" width="59.00725799999999"><g><svg viewBox="0 0 59.00725799999999 35.14918827891891" height="35.14918827891891" width="59.00725799999999"><g id="textblocktransform"><svg viewBox="0 0 59.00725799999999 35.14918827891891" height="35.14918827891891" width="59.00725799999999" id="textblock"><g><svg viewBox="0 0 59.00725799999999 35.14918827891891" height="35.14918827891891" width="59.00725799999999"><g transform="matrix(1,0,0,1,0,0)"><svg width="59.00725799999999" viewBox="3.05 -27.55 46.25 27.55" height="35.14918827891891" data-palette-color="#ffffff"><path d="M38.35-27.55Q43.35-27.55 46.33-24.55 49.3-21.55 49.3-15.5L49.3-15.5 49.3 0 39.8 0 39.8-13.95Q39.8-16.8 38.73-18.15 37.65-19.5 35.7-19.5L35.7-19.5Q33.55-19.5 32.25-18 30.95-16.5 30.95-13.45L30.95-13.45 30.95 0 21.45 0 21.45-13.95Q21.45-19.5 17.35-19.5L17.35-19.5Q15.15-19.5 13.85-18 12.55-16.5 12.55-13.45L12.55-13.45 12.55 0 3.05 0 3.05-27.1 12.1-27.1 12.1-24.25Q13.6-25.9 15.68-26.73 17.75-27.55 20.2-27.55L20.2-27.55Q23.05-27.55 25.3-26.5 27.55-25.45 28.95-23.3L28.95-23.3Q30.55-25.35 33-26.45 35.45-27.55 38.35-27.55L38.35-27.55Z" opacity="1" transform="matrix(1,0,0,1,0,0)" fill="#000000" class="wordmark-text-0" data-fill-palette-color="primary" id="text-0"></path></svg></g></svg></g></svg></g></svg></g><g></g></svg></g></svg></g><path d="M0 53.675L0 1 59.007 1 59.007 53.675 55.837 53.675 55.837 4.17 3.17 4.17 3.17 53.675 0 53.675M0 100.825L0 153.5 59.007 153.5 59.007 100.825 55.837 100.825 55.837 150.33 3.17 150.33 3.17 100.825 0 100.825" fill="#000000" stroke="transparent" data-fill-palette-color="primary"></path></svg></g><defs></defs></svg><rect width="59.00725799999999" height="154.5" fill="none" stroke="none" visibility="hidden"></rect></g></svg></g></svg>