<svg xmlns="http://www.w3.org/2000/svg" version="1.1" xmlns:xlink="http://www.w3.org/1999/xlink" xmlns:svgjs="http://svgjs.dev/svgjs" width="1500" height="952" viewBox="0 0 1500 952"><g transform="matrix(1,0,0,1,0.15999999999996817,0.000052999999866187864)"><svg viewBox="0 0 375 238" data-background-color="#ffffff" preserveAspectRatio="xMidYMid meet" height="952" width="1500" xmlns="http://www.w3.org/2000/svg" xmlns:xlink="http://www.w3.org/1999/xlink"><g id="tight-bounds" transform="matrix(1,0,0,1,-0.03976000000000113,0.000006750000039801307)"><svg viewBox="0 0 375.07953 238.00000649999998" height="238.00000649999998" width="375.07953"><g><svg></svg></g><g><svg viewBox="0 0 375.07953 238.00000649999998" height="238.00000649999998" width="375.07953"><g transform="matrix(1,0,0,1,-10.22024,-9.200019999999995)"><path d="M10.22 238v-228.8h375.08v228.8h-18.275l0-3.829h14.446v-221.142h-367.422v221.142h15.589l0 3.829z" fill="#bb84e8" fill-rule="nonzero" stroke="none" stroke-width="1" stroke-linecap="butt" stroke-linejoin="miter" stroke-miterlimit="10" stroke-dasharray="" stroke-dashoffset="0" font-family="none" font-weight="none" font-size="none" text-anchor="none" style="mix-blend-mode: normal" data-fill-palette-color="tertiary"></path><g><path transform="translate(39.98024,242.30172) scale(0.49729,0.49729)" d="M2.3 0v0-23.85c1.1-0.5 2.293-0.9 3.58-1.2 1.28-0.3 2.603-0.45 3.97-0.45v0c1.967 0 3.4 0.433 4.3 1.3 0.9 0.867 1.477 2.1 1.73 3.7 0.247 1.6 0.37 3.517 0.37 5.75v0 13.95c0 0.267-0.067 0.45-0.2 0.55-0.133 0.1-0.483 0.167-1.05 0.2-0.567 0.033-1.5 0.05-2.8 0.05v0-18.6c0-0.833-0.04-1.493-0.12-1.98-0.087-0.48-0.303-0.83-0.65-1.05-0.353-0.213-0.913-0.32-1.68-0.32v0c-0.567 0-1.123 0.067-1.67 0.2-0.553 0.133-1.13 0.35-1.73 0.65v0 20.3c0 0.267-0.067 0.45-0.2 0.55-0.133 0.1-0.473 0.167-1.02 0.2-0.553 0.033-1.497 0.05-2.83 0.05zM12.2 0v0-21.8c0.3-0.733 0.893-1.377 1.78-1.93 0.88-0.547 1.91-0.98 3.09-1.3 1.187-0.313 2.33-0.47 3.43-0.47v0c1.667 0 2.9 0.273 3.7 0.82 0.8 0.553 1.317 1.353 1.55 2.4 0.233 1.053 0.35 2.33 0.35 3.83v0 17.65c0 0.267-0.067 0.45-0.2 0.55-0.133 0.1-0.483 0.167-1.05 0.2-0.567 0.033-1.5 0.05-2.8 0.05v0-18.5c0-1.2-0.157-2.067-0.47-2.6-0.32-0.533-0.98-0.8-1.98-0.8v0c-0.533 0-1.083 0.067-1.65 0.2-0.567 0.133-1.133 0.383-1.7 0.75v0 20.15c0 0.267-0.05 0.45-0.15 0.55-0.1 0.1-0.433 0.167-1 0.2-0.567 0.033-1.533 0.05-2.9 0.05zM220.6 0.5v0c-1.767 0-3.223-0.21-4.37-0.63-1.153-0.413-1.73-1.053-1.73-1.92v0c0-0.3 0.05-0.66 0.15-1.08 0.1-0.413 0.283-0.837 0.55-1.27v0c0.733 0.433 1.51 0.75 2.33 0.95 0.813 0.2 1.703 0.3 2.67 0.3v0c1.267 0 2.26-0.26 2.98-0.78 0.713-0.513 1.07-1.287 1.07-2.32v0c0-0.667-0.14-1.317-0.42-1.95-0.287-0.633-0.813-1.283-1.58-1.95v0l-4.85-4.15c-1.133-0.933-1.89-1.843-2.27-2.73-0.387-0.88-0.58-1.737-0.58-2.57v0c0-1.167 0.293-2.193 0.88-3.08 0.58-0.88 1.48-1.57 2.7-2.07 1.213-0.5 2.737-0.75 4.57-0.75v0c1.733 0 3.043 0.167 3.93 0.5 0.88 0.333 1.497 0.707 1.85 1.12 0.347 0.42 0.52 0.813 0.52 1.18v0c0 0.7-0.3 1.383-0.9 2.05v0c-0.733-0.467-1.5-0.8-2.3-1-0.8-0.2-1.667-0.3-2.6-0.3v0c-1.2 0-2.157 0.207-2.87 0.62-0.72 0.42-1.08 1.013-1.08 1.78v0c0 0.433 0.127 0.883 0.38 1.35 0.247 0.467 0.787 1.05 1.62 1.75v0l4.65 3.75c1.1 1.033 1.867 2.017 2.3 2.95 0.433 0.933 0.65 2.033 0.65 3.3v0c0 2.2-0.733 3.907-2.2 5.12-1.467 1.22-3.483 1.83-6.05 1.83zM418.66 9.65v0c-1.467 0-2.51-0.183-3.13-0.55-0.613-0.367-0.92-0.833-0.92-1.4v0c0-0.4 0.05-0.817 0.15-1.25 0.1-0.433 0.25-0.783 0.45-1.05v0c0.333 0.233 0.8 0.427 1.4 0.58 0.6 0.147 1.183 0.22 1.75 0.22v0c0.8 0 1.517-0.383 2.15-1.15 0.633-0.767 1.133-2.183 1.5-4.25v0l-6-24.7c-0.1-0.367-0.11-0.627-0.03-0.78 0.087-0.147 0.42-0.237 1-0.27 0.587-0.033 1.58-0.05 2.98-0.05v0l2.7 11.95c0.2 1 0.383 2.017 0.55 3.05 0.167 1.033 0.3 1.99 0.4 2.87 0.1 0.887 0.19 1.597 0.27 2.13 0.087 0.533 0.13 0.8 0.13 0.8v0c0 0 0.023-0.267 0.07-0.8 0.053-0.533 0.137-1.243 0.25-2.13 0.12-0.88 0.253-1.847 0.4-2.9 0.153-1.047 0.313-2.07 0.48-3.07v0l2.25-10.7c0.067-0.433 0.167-0.727 0.3-0.88 0.133-0.147 0.5-0.237 1.1-0.27 0.6-0.033 1.583-0.05 2.95-0.05v0l-6.15 26.35c-0.5 2.1-1.06 3.76-1.68 4.98-0.613 1.213-1.347 2.07-2.2 2.57-0.847 0.5-1.887 0.75-3.12 0.75zM621.06 9.85v0c-0.7 0-1.2-0.127-1.5-0.38-0.3-0.247-0.45-0.703-0.45-1.37v0-31.6c1-0.633 2.133-1.127 3.4-1.48 1.267-0.347 2.567-0.52 3.9-0.52v0c1.667 0 3.11 0.29 4.33 0.87 1.213 0.587 2.153 1.637 2.82 3.15 0.667 1.52 1 3.647 1 6.38v0c0 2.667-0.15 4.923-0.45 6.77-0.3 1.853-0.7 3.363-1.2 4.53-0.5 1.167-1.073 2.057-1.72 2.67-0.653 0.62-1.32 1.047-2 1.28-0.687 0.233-1.38 0.35-2.08 0.35v0c-0.9 0-1.69-0.133-2.37-0.4-0.687-0.267-1.213-0.6-1.58-1v0 10.4c-0.333 0.1-0.683 0.183-1.05 0.25-0.367 0.067-0.717 0.1-1.05 0.1zM625.86-3.15v0c0.4 0 0.833-0.117 1.3-0.35 0.467-0.233 0.927-0.733 1.38-1.5 0.447-0.767 0.813-1.917 1.1-3.45 0.28-1.533 0.42-3.6 0.42-6.2v0c0-2-0.14-3.527-0.42-4.58-0.287-1.047-0.713-1.763-1.28-2.15-0.567-0.38-1.283-0.57-2.15-0.57v0c-1.133 0-2.15 0.317-3.05 0.95v0 16.2c0.367 0.6 0.783 1.023 1.25 1.27 0.467 0.253 0.95 0.38 1.45 0.38z" fill="#bb84e8" fill-rule="nonzero" stroke="none" stroke-width="1" stroke-linecap="butt" stroke-linejoin="miter" stroke-miterlimit="10" stroke-dasharray="" stroke-dashoffset="0" font-family="none" font-weight="none" font-size="none" text-anchor="none" style="mix-blend-mode: normal" data-fill-palette-color="secondary"></path></g></g><g transform="matrix(1,0,0,1,29.33176499999999,56.4985412336926)"><svg viewBox="0 0 316.416 125.00292403261479" height="125.00292403261479" width="316.416"><g><svg viewBox="0 0 317.99807999999996 125.62793865277784" height="125.00292403261479" width="316.416"><g><rect width="317.99807999999996" height="3.8478178360294253" x="0" y="69.03959241507846" fill="#bb84e8" opacity="1" stroke-width="0" stroke="transparent" fill-opacity="1" class="rect-qz-0" data-fill-palette-color="secondary" rx="1%" id="qz-0" data-palette-color="#bb84e8"></rect></g><g transform="matrix(1,0,0,1,0.7910399999999811,82.96023181139434)"><svg viewBox="0 0 316.416 42.667706841383506" height="42.667706841383506" width="316.416"><g id="textblocktransform"><svg viewBox="0 0 316.416 42.667706841383506" height="42.667706841383506" width="316.416" id="textblock"><g><svg viewBox="0 0 316.416 42.667706841383506" height="42.667706841383506" width="316.416"><g transform="matrix(1,0,0,1,0,0)"><svg width="316.416" viewBox="1.25 -35.25 328.12 44.25" height="42.667706841383506" data-palette-color="#bb84e8"><path d="M29.85-4.8L36.8-24.35 40.85-24.35 31.8 0 27.9 0 21.05-18.85 14.15 0 10.3 0 1.25-24.35 5.45-24.35 12.35-4.8 19.4-24.35 22.9-24.35 29.85-4.8ZM65.95-13.05L65.95-11.55 48.15-11.55Q48.35-7.3 50.45-5.13 52.55-2.95 56.4-2.95L56.4-2.95Q60.65-2.95 64.2-5.85L64.2-5.85 65.55-2.9Q63.95-1.4 61.45-0.53 58.95 0.35 56.35 0.35L56.35 0.35Q50.65 0.35 47.37-3 44.1-6.35 44.1-12.25L44.1-12.25Q44.1-16 45.55-18.88 47-21.75 49.62-23.35 52.25-24.95 55.6-24.95L55.6-24.95Q60.45-24.95 63.2-21.78 65.95-18.6 65.95-13.05L65.95-13.05ZM55.65-21.8Q52.45-21.8 50.52-19.8 48.6-17.8 48.25-14.15L48.25-14.15 62.4-14.15Q62.3-17.85 60.55-19.83 58.8-21.8 55.65-21.8L55.65-21.8ZM84.15-24.95Q87.35-24.95 89.8-23.4 92.25-21.85 93.6-19 94.95-16.15 94.95-12.4L94.95-12.4Q94.95-8.6 93.6-5.73 92.25-2.85 89.8-1.25 87.35 0.35 84.15 0.35L84.15 0.35Q81.3 0.35 79.17-0.9 77.05-2.15 75.95-4.45L75.95-4.45 75.95 0 71.9 0 71.9-35.25 75.95-35.25 75.95-20.15Q77.05-22.45 79.17-23.7 81.3-24.95 84.15-24.95L84.15-24.95ZM83.35-3Q86.9-3 88.85-5.48 90.8-7.95 90.8-12.4L90.8-12.4Q90.8-16.75 88.85-19.15 86.9-21.55 83.35-21.55L83.35-21.55Q79.8-21.55 77.87-19.15 75.95-16.75 75.95-12.3L75.95-12.3Q75.95-7.85 77.87-5.43 79.8-3 83.35-3L83.35-3ZM131.44-35.25L135.49-35.25 135.49 0 131.44 0 131.44-4.45Q130.34-2.15 128.22-0.9 126.09 0.35 123.24 0.35L123.24 0.35Q120.04 0.35 117.59-1.25 115.14-2.85 113.79-5.73 112.44-8.6 112.44-12.4L112.44-12.4Q112.44-16.15 113.79-19 115.14-21.85 117.59-23.4 120.04-24.95 123.24-24.95L123.24-24.95Q126.09-24.95 128.22-23.7 130.34-22.45 131.44-20.15L131.44-20.15 131.44-35.25ZM124.04-3Q127.59-3 129.52-5.43 131.44-7.85 131.44-12.3L131.44-12.3Q131.44-16.75 129.52-19.15 127.59-21.55 124.04-21.55L124.04-21.55Q120.49-21.55 118.52-19.15 116.54-16.75 116.54-12.4L116.54-12.4Q116.54-7.95 118.52-5.48 120.49-3 124.04-3L124.04-3ZM163.39-13.05L163.39-11.55 145.59-11.55Q145.79-7.3 147.89-5.13 149.99-2.95 153.84-2.95L153.84-2.95Q158.09-2.95 161.64-5.85L161.64-5.85 162.99-2.9Q161.39-1.4 158.89-0.53 156.39 0.35 153.79 0.35L153.79 0.35Q148.09 0.35 144.81-3 141.54-6.35 141.54-12.25L141.54-12.25Q141.54-16 142.99-18.88 144.44-21.75 147.06-23.35 149.69-24.95 153.04-24.95L153.04-24.95Q157.89-24.95 160.64-21.78 163.39-18.6 163.39-13.05L163.39-13.05ZM153.09-21.8Q149.89-21.8 147.96-19.8 146.04-17.8 145.69-14.15L145.69-14.15 159.84-14.15Q159.74-17.85 157.99-19.83 156.24-21.8 153.09-21.8L153.09-21.8ZM178.23-4.4L186.49-24.3 190.53-24.3 180.03 0 176.23 0 165.78-24.3 170.09-24.3 178.23-4.4ZM214.83-13.05L214.83-11.55 197.03-11.55Q197.23-7.3 199.33-5.13 201.43-2.95 205.28-2.95L205.28-2.95Q209.53-2.95 213.08-5.85L213.08-5.85 214.43-2.9Q212.83-1.4 210.33-0.53 207.83 0.35 205.23 0.35L205.23 0.35Q199.53 0.35 196.26-3 192.98-6.35 192.98-12.25L192.98-12.25Q192.98-16 194.43-18.88 195.88-21.75 198.51-23.35 201.13-24.95 204.48-24.95L204.48-24.95Q209.33-24.95 212.08-21.78 214.83-18.6 214.83-13.05L214.83-13.05ZM204.53-21.8Q201.33-21.8 199.41-19.8 197.48-17.8 197.13-14.15L197.13-14.15 211.28-14.15Q211.18-17.85 209.43-19.83 207.68-21.8 204.53-21.8L204.53-21.8ZM224.83 0L220.78 0 220.78-35.25 224.83-35.25 224.83 0ZM242.48 0.35Q239.03 0.35 236.4-1.2 233.78-2.75 232.35-5.63 230.93-8.5 230.93-12.3L230.93-12.3Q230.93-16.1 232.35-18.98 233.78-21.85 236.4-23.4 239.03-24.95 242.48-24.95L242.48-24.95Q245.93-24.95 248.58-23.4 251.23-21.85 252.65-18.98 254.08-16.1 254.08-12.3L254.08-12.3Q254.08-8.5 252.65-5.63 251.23-2.75 248.58-1.2 245.93 0.35 242.48 0.35L242.48 0.35ZM242.48-3Q246.08-3 248-5.38 249.93-7.75 249.93-12.3L249.93-12.3Q249.93-16.75 247.98-19.18 246.03-21.6 242.48-21.6L242.48-21.6Q238.93-21.6 236.98-19.18 235.03-16.75 235.03-12.3L235.03-12.3Q235.03-7.8 236.95-5.4 238.88-3 242.48-3L242.48-3ZM272.38-24.95Q275.57-24.95 278.02-23.35 280.48-21.75 281.82-18.88 283.18-16 283.18-12.2L283.18-12.2Q283.18-8.4 281.82-5.58 280.48-2.75 278.05-1.2 275.63 0.35 272.38 0.35L272.38 0.35Q269.52 0.35 267.4-0.9 265.27-2.15 264.18-4.45L264.18-4.45 264.18 9 260.13 9 260.13-24.35 264.18-24.35 264.18-20.15Q265.27-22.45 267.4-23.7 269.52-24.95 272.38-24.95L272.38-24.95ZM271.57-3Q275.13-3 277.07-5.4 279.02-7.8 279.02-12.2L279.02-12.2Q279.02-16.6 277.07-19.07 275.13-21.55 271.57-21.55L271.57-21.55Q268.02-21.55 266.1-19.15 264.18-16.75 264.18-12.3L264.18-12.3Q264.18-7.85 266.1-5.43 268.02-3 271.57-3L271.57-3ZM309.62-13.05L309.62-11.55 291.82-11.55Q292.02-7.3 294.12-5.13 296.22-2.95 300.07-2.95L300.07-2.95Q304.32-2.95 307.87-5.85L307.87-5.85 309.22-2.9Q307.62-1.4 305.12-0.53 302.62 0.35 300.02 0.35L300.02 0.35Q294.32 0.35 291.05-3 287.77-6.35 287.77-12.25L287.77-12.25Q287.77-16 289.22-18.88 290.67-21.75 293.3-23.35 295.92-24.95 299.27-24.95L299.27-24.95Q304.12-24.95 306.87-21.78 309.62-18.6 309.62-13.05L309.62-13.05ZM299.32-21.8Q296.12-21.8 294.2-19.8 292.27-17.8 291.92-14.15L291.92-14.15 306.07-14.15Q305.97-17.85 304.22-19.83 302.47-21.8 299.32-21.8L299.32-21.8ZM329.02-24.95L329.37-21.45 326.72-21.2Q322.97-20.85 321.3-18.85 319.62-16.85 319.62-13.9L319.62-13.9 319.62 0 315.57 0 315.57-24.35 319.52-24.35 319.52-20.1Q321.57-24.35 327.57-24.85L327.57-24.85 329.02-24.95Z" opacity="1" transform="matrix(1,0,0,1,0,0)" fill="#bb84e8" class="wordmark-text-0" data-fill-palette-color="primary" id="text-0"></path></svg></g></svg></g></svg></g></svg></g><g transform="matrix(1,0,0,1,137.46264291698168,0)"><svg viewBox="0 0 43.07279416603658 58.966770854792" height="58.966770854792" width="43.07279416603658"><g><svg xmlns="http://www.w3.org/2000/svg" xmlns:xlink="http://www.w3.org/1999/xlink" version="1.1" x="8" y="0" viewBox="34.3 10.1 36.5 79.5" style="enable-background:new 0 0 100 100;" xml:space="preserve" height="58.966770854792" width="27.07279416603658" class="icon-icon-0" data-fill-palette-color="accent" id="icon-0"><g fill="#bb84e8" data-fill-palette-color="accent"><g fill="#bb84e8" data-fill-palette-color="accent"><polygon points="35,10.1 35,11.7 69.4,31.6 69.4,87.1 70.8,87.9 70.8,30.8   " fill="#bb84e8" data-fill-palette-color="accent"></polygon></g><g fill="#bb84e8" data-fill-palette-color="accent"><path d="M34.3 74.1l26.9 15.5 0.4-0.2v0l5.8-2.9 0 0 0.2-0.1V32.6L34.3 13.3V74.1zM61.4 83.3l3.7 2.2-3.6 1.8L61.4 83.3zM35.7 15.7l30.5 17.6v51.1l-6.3-3.6 0.2 6.6L35.7 73.3V15.7z" fill="#bb84e8" data-fill-palette-color="accent"></path></g></g><g fill="#bb84e8" data-fill-palette-color="accent"><path d="M56.4 47.7l-9.6-5.5-5 4.4 9.8 20.9 9.8-9.7L56.4 47.7zM49.9 50.3l1.7-3 1.7 5L49.9 50.3zM53.4 53.7l-1.8 10.6-1.9-12.7L53.4 53.7zM51.9 46.1l3.6 2.1L53.9 52 51.9 46.1zM49.2 49.3l-1.7-5.7 3.6 2.1L49.2 49.3zM48.7 50l-5.5-3.2 3.6-3.2L48.7 50zM48.9 51.1l1.9 13.1-7.7-16.4L48.9 51.1zM54.2 54.2l5.7 3.3L52.4 65 54.2 54.2zM54.4 53.3l1.9-4.2 3.6 7.4L54.4 53.3z" fill="#bb84e8" data-fill-palette-color="accent"></path></g></svg></g></svg></g><g><rect width="76.23614691698171" height="3.8478178360294253" y="54.118953018762575" x="180.53543708301825" fill="#bb84e8" data-fill-palette-color="secondary"></rect><rect width="76.23614691698171" height="3.8478178360294253" y="54.118953018762575" x="61.22649599999998" fill="#bb84e8" data-fill-palette-color="secondary"></rect></g></svg></g></svg></g></svg></g><defs></defs></svg><rect width="375.07953" height="238.00000649999998" fill="none" stroke="none" visibility="hidden"></rect></g></svg></g></svg>