<svg xmlns="http://www.w3.org/2000/svg" version="1.1" xmlns:xlink="http://www.w3.org/1999/xlink" xmlns:svgjs="http://svgjs.dev/svgjs" width="1500" height="1500" viewBox="0 0 1500 1500"><rect width="1500" height="1500" fill="#471aa0"></rect><g transform="matrix(0.6666666666666666,0,0,0.6666666666666666,250.88393442622947,244.40971659919023)"><svg viewBox="0 0 244 247" data-background-color="#471aa0" preserveAspectRatio="xMidYMid meet" height="1518" width="1500" xmlns="http://www.w3.org/2000/svg" xmlns:xlink="http://www.w3.org/1999/xlink"><g id="tight-bounds" transform="matrix(1,0,0,1,-0.21567999999999188,-0.09999999999999432)"><svg viewBox="0 0 244.43135999999998 247.2" height="247.2" width="244.43135999999998"><g><svg></svg></g><g><svg viewBox="0 0 244.43135999999998 247.2" height="247.2" width="244.43135999999998"><g transform="matrix(1,0,0,1,0,91.72500078865444)"><svg viewBox="0 0 244.43135999999998 63.74999842269111" height="63.74999842269111" width="244.43135999999998"><g><svg viewBox="0 0 244.43135999999998 63.74999842269111" height="63.74999842269111" width="244.43135999999998"><g><svg viewBox="0 0 244.43135999999998 63.74999842269111" height="63.74999842269111" width="244.43135999999998"><g><svg viewBox="0 0 244.43135999999998 63.74999842269111" height="63.74999842269111" width="244.43135999999998"><g id="textblocktransform"><svg viewBox="0 0 244.43135999999998 63.74999842269111" height="63.74999842269111" width="244.43135999999998" id="textblock"><g><svg viewBox="0 0 244.43135999999998 63.74999842269111" height="63.74999842269111" width="244.43135999999998"><g transform="matrix(1,0,0,1,0,0)"><svg width="244.43135999999998" viewBox="3.05 -27.55 144.54 37.7" height="63.74999842269111" data-palette-color="#ffffff"><path d="M38.35-27.55Q43.35-27.55 46.33-24.55 49.3-21.55 49.3-15.5L49.3-15.5 49.3 0 39.8 0 39.8-13.95Q39.8-16.8 38.73-18.15 37.65-19.5 35.7-19.5L35.7-19.5Q33.55-19.5 32.25-18 30.95-16.5 30.95-13.45L30.95-13.45 30.95 0 21.45 0 21.45-13.95Q21.45-19.5 17.35-19.5L17.35-19.5Q15.15-19.5 13.85-18 12.55-16.5 12.55-13.45L12.55-13.45 12.55 0 3.05 0 3.05-27.1 12.1-27.1 12.1-24.25Q13.6-25.9 15.68-26.73 17.75-27.55 20.2-27.55L20.2-27.55Q23.05-27.55 25.3-26.5 27.55-25.45 28.95-23.3L28.95-23.3Q30.55-25.35 33-26.45 35.45-27.55 38.35-27.55L38.35-27.55ZM65.15 0.45Q61.75 0.45 58.45-0.33 55.15-1.1 53.15-2.35L53.15-2.35 56-8.85Q57.85-7.7 60.4-7.03 62.95-6.35 65.45-6.35L65.45-6.35Q67.75-6.35 68.72-6.83 69.7-7.3 69.7-8.2L69.7-8.2Q69.7-9.1 68.52-9.47 67.35-9.85 64.8-10.2L64.8-10.2Q61.55-10.6 59.27-11.25 57-11.9 55.35-13.65 53.7-15.4 53.7-18.55L53.7-18.55Q53.7-21.15 55.25-23.18 56.8-25.2 59.77-26.38 62.75-27.55 66.9-27.55L66.9-27.55Q69.85-27.55 72.75-26.95 75.65-26.35 77.6-25.25L77.6-25.25 74.75-18.8Q71.15-20.8 66.95-20.8L66.95-20.8Q64.7-20.8 63.65-20.28 62.6-19.75 62.6-18.9L62.6-18.9Q62.6-17.95 63.75-17.57 64.9-17.2 67.55-16.8L67.55-16.8Q70.9-16.3 73.1-15.65 75.3-15 76.92-13.28 78.55-11.55 78.55-8.45L78.55-8.45Q78.55-5.9 77-3.88 75.45-1.85 72.42-0.7 69.4 0.45 65.15 0.45L65.15 0.45ZM101.64-27.1L111.14-27.1 111.14-4.95Q111.14 2.6 107.12 6.38 103.09 10.15 95.55 10.15L95.55 10.15Q91.59 10.15 88.17 9.25 84.75 8.35 82.34 6.6L82.34 6.6 85.8-0.05Q87.39 1.3 89.82 2.08 92.25 2.85 94.64 2.85L94.64 2.85Q98.25 2.85 99.94 1.2 101.64-0.45 101.64-3.7L101.64-3.7 101.64-4.3Q98.59-1.4 94.05-1.4L94.05-1.4Q88.8-1.4 85.67-4.5 82.55-7.6 82.55-13.8L82.55-13.8 82.55-27.1 92.05-27.1 92.05-15.35Q92.05-12.25 93.19-10.85 94.34-9.45 96.55-9.45L96.55-9.45Q98.8-9.45 100.22-11.05 101.64-12.65 101.64-15.85L101.64-15.85 101.64-27.1ZM134.29-27.55Q137.99-27.55 141.02-25.83 144.04-24.1 145.82-20.93 147.59-17.75 147.59-13.55L147.59-13.55Q147.59-9.35 145.82-6.18 144.04-3 141.02-1.28 137.99 0.45 134.29 0.45L134.29 0.45Q129.54 0.45 126.74-2.4L126.74-2.4 126.74 9.7 117.24 9.7 117.24-27.1 126.29-27.1 126.29-24.4Q128.94-27.55 134.29-27.55L134.29-27.55ZM132.29-7.1Q134.79-7.1 136.39-8.83 137.99-10.55 137.99-13.55L137.99-13.55Q137.99-16.55 136.39-18.28 134.79-20 132.29-20L132.29-20Q129.79-20 128.19-18.28 126.59-16.55 126.59-13.55L126.59-13.55Q126.59-10.55 128.19-8.83 129.79-7.1 132.29-7.1L132.29-7.1Z" opacity="1" transform="matrix(1,0,0,1,0,0)" fill="#ffffff" class="wordmark-text-0" data-fill-palette-color="primary" id="text-0"></path></svg></g></svg></g></svg></g></svg></g><g></g></svg></g></svg></g></svg></g><path d="M0 85.725L0 1 244.431 1 244.431 85.725 238.682 85.725 238.682 6.749 5.749 6.749 5.749 85.725 0 85.725M0 161.475L0 246.2 244.431 246.2 244.431 161.475 238.682 161.475 238.682 240.451 5.749 240.451 5.749 161.475 0 161.475" fill="#ffffff" stroke="transparent" data-fill-palette-color="primary"></path></svg></g><defs></defs></svg><rect width="244.43135999999998" height="247.2" fill="none" stroke="none" visibility="hidden"></rect></g></svg></g></svg>