<svg xmlns="http://www.w3.org/2000/svg" version="1.1" xmlns:xlink="http://www.w3.org/1999/xlink" xmlns:svgjs="http://svgjs.dev/svgjs" width="128" height="128" viewBox="0 0 128 128"><g transform="matrix(0.8046875,0,0,0.8046875,12.333870967741937,12.333870967741937)"><svg viewBox="0 0 155 155" data-background-color="#ffffff" preserveAspectRatio="xMidYMid meet" height="128" width="128" xmlns="http://www.w3.org/2000/svg" xmlns:xlink="http://www.w3.org/1999/xlink"><g id="tight-bounds" transform="matrix(1,0,0,1,0.25,0.25)"><svg viewBox="0 0 154.5 154.5" height="154.5" width="154.5"><g><svg></svg></g><g><svg viewBox="0 0 154.5 154.5" height="154.5" width="154.5"><g transform="matrix(1,0,0,1,67.76801608867925,56.5974597)"><svg viewBox="0 0 18.96396782264151 41.3050806" height="41.3050806" width="18.96396782264151"><g><svg viewBox="0 0 18.96396782264151 41.3050806" height="41.3050806" width="18.96396782264151"><g><svg viewBox="0 0 18.96396782264151 41.3050806" height="41.3050806" width="18.96396782264151"><g id="textblocktransform"><svg viewBox="0 0 18.96396782264151 41.3050806" height="41.3050806" width="18.96396782264151" id="textblock"><g><svg viewBox="0 0 18.96396782264151 41.3050806" height="41.3050806" width="18.96396782264151"><g><svg viewBox="0 0 18.96396782264151 41.3050806" height="41.3050806" width="18.96396782264151"><g><svg xmlns="http://www.w3.org/2000/svg" xmlns:xlink="http://www.w3.org/1999/xlink" version="1.1" x="0" y="0" viewBox="34.3 10.1 36.5 79.5" style="enable-background:new 0 0 100 100;" xml:space="preserve" height="41.3050806" width="18.96396782264151" class="icon-icon-0" data-fill-palette-color="accent" id="icon-0"><g fill="#bb84e8" data-fill-palette-color="accent"><g fill="#bb84e8" data-fill-palette-color="accent"><polygon points="35,10.1 35,11.7 69.4,31.6 69.4,87.1 70.8,87.9 70.8,30.8   " fill="#bb84e8" data-fill-palette-color="accent"></polygon></g><g fill="#bb84e8" data-fill-palette-color="accent"><path d="M34.3 74.1l26.9 15.5 0.4-0.2v0l5.8-2.9 0 0 0.2-0.1V32.6L34.3 13.3V74.1zM61.4 83.3l3.7 2.2-3.6 1.8L61.4 83.3zM35.7 15.7l30.5 17.6v51.1l-6.3-3.6 0.2 6.6L35.7 73.3V15.7z" fill="#bb84e8" data-fill-palette-color="accent"></path></g></g><g fill="#bb84e8" data-fill-palette-color="accent"><path d="M56.4 47.7l-9.6-5.5-5 4.4 9.8 20.9 9.8-9.7L56.4 47.7zM49.9 50.3l1.7-3 1.7 5L49.9 50.3zM53.4 53.7l-1.8 10.6-1.9-12.7L53.4 53.7zM51.9 46.1l3.6 2.1L53.9 52 51.9 46.1zM49.2 49.3l-1.7-5.7 3.6 2.1L49.2 49.3zM48.7 50l-5.5-3.2 3.6-3.2L48.7 50zM48.9 51.1l1.9 13.1-7.7-16.4L48.9 51.1zM54.2 54.2l5.7 3.3L52.4 65 54.2 54.2zM54.4 53.3l1.9-4.2 3.6 7.4L54.4 53.3z" fill="#bb84e8" data-fill-palette-color="accent"></path></g></svg></g></svg></g></svg></g></svg></g></svg></g><g></g></svg></g></svg></g><g><path d="M0 154.5v-154.5h154.5v154.5zM150.775 150.775v-147.05h-147.05v147.05z" fill="#bb84e8" fill-rule="nonzero" stroke="none" stroke-width="1" stroke-linecap="butt" stroke-linejoin="miter" stroke-miterlimit="10" stroke-dasharray="" stroke-dashoffset="0" font-family="none" font-weight="none" font-size="none" text-anchor="none" style="mix-blend-mode: normal" data-fill-palette-color="tertiary"></path></g></svg></g><defs></defs></svg><rect width="154.5" height="154.5" fill="none" stroke="none" visibility="hidden"></rect></g></svg></g></svg>